<?xml version="1.0" encoding="UTF-8"?>
<!DOCTYPE svg PUBLIC "-//W3C//DTD SVG 1.1//EN" "http://www.w3.org/Graphics/SVG/1.1/DTD/svg11.dtd">
<!-- Creator: CorelDRAW 2017 -->
<svg xmlns="http://www.w3.org/2000/svg" xml:space="preserve" width="100%" height="100%" version="1.1" style="shape-rendering:geometricPrecision; text-rendering:geometricPrecision; image-rendering:optimizeQuality; fill-rule:evenodd; clip-rule:evenodd"
viewBox="0 0 430000 310000"
 xmlns:xlink="http://www.w3.org/1999/xlink">
 <defs>
  <style type="text/css">
   <![CDATA[
    .fil0 {fill:#2B2A29;fill-rule:nonzero}
   ]]>
  </style>
 </defs>
 <g id="Layer_x0020_1">
  <metadata id="CorelCorpID_0Corel-Layer"/>
  <path class="fil0" d="M271942.7 148372.8c0,-5051.9 -1971.8,-9800.6 -5563.1,-13385.4 -3561.8,-3564 -8312.4,-5532.4 -13390.5,-5532.4 -5041.7,0 -9783.7,1968.4 -13379.5,5532.4 -3565.7,3584.8 -5533.5,8333.5 -5533.5,13385.4l0 35597.4 -54602.4 0c0,0 59791.6,-121614.8 59733.9,-121527.6 1991.6,-4648 2100.4,-9792.2 213.9,-14500.4 -1876,-4697.2 -5465.1,-8403.8 -10109.1,-10397.5 -4648.1,-2019 -9781.5,-2087.9 -14485.4,-209.2 -4705.9,1890.5 -8382.5,5462.6 -10431.9,10194 0,0 -69029.9,140098.3 -72005.3,146464.3 -5647.2,12047.1 1007.5,27845.5 16748.3,27845.5l84938 0 0 25202.4c0,5064.5 1967.8,9813.2 5533.5,13411.4 3595.8,3558.8 8337.8,5526.9 13379.5,5526.9 10455.4,0 18953.6,-8491.8 18953.6,-18938.3l0 -98668.9z"/>
 </g>
</svg>
