<?xml version="1.0" encoding="UTF-8"?>
<!DOCTYPE svg PUBLIC "-//W3C//DTD SVG 1.1//EN" "http://www.w3.org/Graphics/SVG/1.1/DTD/svg11.dtd">
<!-- Creator: CorelDRAW 2017 -->
<svg xmlns="http://www.w3.org/2000/svg" xml:space="preserve" width="100%" height="100%" version="1.1" style="shape-rendering:geometricPrecision; text-rendering:geometricPrecision; image-rendering:optimizeQuality; fill-rule:evenodd; clip-rule:evenodd"
viewBox="0 0 430000 310000"
 xmlns:xlink="http://www.w3.org/1999/xlink">
 <defs>
  <style type="text/css">
   <![CDATA[
    .fil0 {fill:#2B2A29;fill-rule:nonzero}
   ]]>
  </style>
 </defs>
 <g id="Layer_x0020_1">
  <metadata id="CorelCorpID_0Corel-Layer"/>
  <path class="fil0" d="M292383.7 187523.8c0,-19142.5 -7448.7,-37152.4 -20982.1,-50669.3 -13535.8,-13533.4 -31525.2,-21004.4 -50682.9,-21004.4l-22869.3 0 0 -35184.4 64898.3 0c10557.7,0 19155.6,-8591.5 19155.6,-19159.8 0,-5128.8 -1998.4,-9922.8 -5617.8,-13552.6 -3606.3,-3615.4 -8430.3,-5624.9 -13537.8,-5624.9l-84042.8 0c-5107.5,0 -9916.8,2009.5 -13535.8,5624.9 -3621.6,3629.8 -5624.1,8423.8 -5624.1,13552.6l0 73505.3c0,5111 2002.5,9913.8 5624.1,13546 3619,3610.7 8428.3,5604.3 13535.8,5604.3l42013.8 0c18417.8,0 33364.6,14979.2 33364.6,33362.3l0 13139.5c0,8919.5 -3456.1,17281.8 -9766.5,23602.3 -6295,6277.9 -14682.8,9759.8 -23598.1,9759.8 -11303.9,0 -21752.2,-5677.1 -28010.9,-15274.3 -3387.6,-5968.7 -9781.4,-9679 -16633.8,-9679 -5126.7,0 -9920.8,1998.4 -13544.7,5617.8 -3631.7,3606.7 -5613,8417.8 -5613,13529.6 0,3653.5 979.7,7187.4 2841.1,10154.7 13190.3,21269.8 35986.5,33954.2 60961.3,33954.2 39546.1,0 71665,-32144.9 71665,-71665.1l0 -13139.5z"/>
 </g>
</svg>
