<?xml version="1.0" encoding="UTF-8"?>
<!DOCTYPE svg PUBLIC "-//W3C//DTD SVG 1.1//EN" "http://www.w3.org/Graphics/SVG/1.1/DTD/svg11.dtd">
<!-- Creator: CorelDRAW 2017 -->
<svg xmlns="http://www.w3.org/2000/svg" xml:space="preserve" width="100%" height="100%" version="1.1" style="shape-rendering:geometricPrecision; text-rendering:geometricPrecision; image-rendering:optimizeQuality; fill-rule:evenodd; clip-rule:evenodd"
viewBox="0 0 430000 310000"
 xmlns:xlink="http://www.w3.org/1999/xlink">
 <defs>
  <style type="text/css">
   <![CDATA[
    .fil0 {fill:#2B2A29;fill-rule:nonzero}
   ]]>
  </style>
 </defs>
 <g id="Layer_x0020_1">
  <metadata id="CorelCorpID_0Corel-Layer"/>
  <path class="fil0" d="M283798 194059.1c0,-18619.5 -7186.9,-36207.3 -20140.6,-49447.2 -1055.1,-1009.6 -2107.7,-1792.7 -3746.7,-2396.1l-3896.1 -1438.5 3684.5 -1887.2c1645.5,-863.8 2689.3,-1912.5 3958.3,-3435.9 8060,-10938.1 12356.3,-23886.9 12356.3,-37461.2 0,-16835.2 -6566.3,-32700.1 -18492.6,-44601.2 -11901.1,-11908.9 -27758.2,-18471.8 -44601.1,-18471.8 -25958.4,0 -49670.2,16317.7 -58949.6,40664.2 -32.3,55.6 -1519.6,5332.8 -1519.6,7420.4 0,5069.7 1975.3,9825.2 5554.7,13388.2 3577.4,3594.5 8327.6,5558.4 13388,5558.4 7978.8,0 15075.9,-5328 17878.9,-12642.8 3761.2,-9851.5 13135.1,-16507.8 23647.6,-16507.8 6750.2,0 13068.9,2625.1 17818.7,7377.5 4767.1,4770.1 7390.6,11091.9 7390.6,17814.9 0,13899.3 -11468.6,25204.9 -25209.3,25204.9 -5045.4,0 -9799.8,1976.8 -13390,5537.4 -3558.5,3577.8 -5522.6,8344.3 -5522.6,13395.1 0,5066.3 1964.1,9820.5 5522.6,13393.4 3590.2,3586.5 8224.5,5554.6 13390,5554.6 17988,0 32993.2,14806.8 32993.2,32980.7 0,8811.5 -3425.7,17087.8 -9658.4,23318.8 -6239.1,6229.8 -14500.3,9661.8 -23334.8,9661.8 -11507.2,0 -21324.1,-5528.7 -27828.6,-15139.8 -4685.9,-6967.2 -9816.5,-9705.4 -16513.7,-9705.4 -5034.7,0 -9799.8,1976.6 -13390,5545.9 -3562.8,3594.3 -5535.1,8331.7 -5535.1,13385.4 0,3988.6 1236.4,7793.2 3607.1,11109.3 13120.6,20467.7 35439.2,32684.9 59660.3,32684.9 39089.2,0 70878,-31794.7 70878,-70860.9z"/>
 </g>
</svg>
